<svg width="29" height="51" viewBox="0 0 29 51" fill="none" xmlns="http://www.w3.org/2000/svg">
<path d="M14.0667 34.6667C13 34.6667 12.1004 34.2889 11.368 33.5333C10.6338 32.7778 10.3111 31.8889 10.4 30.8667C10.5333 29 10.9778 27.3778 11.7333 26C12.4889 24.6222 13.6889 23.2 15.3333 21.7333C17.1556 20.1333 18.544 18.744 19.4987 17.5653C20.4551 16.3884 20.9333 15.0444 20.9333 13.5333C20.9333 11.7111 20.3227 10.2 19.1013 9C17.8782 7.8 16.1778 7.2 14 7.2C12.5778 7.2 11.3671 7.49956 10.368 8.09867C9.36711 8.69956 8.55556 9.44444 7.93333 10.3333C7.31111 11.2222 6.54489 11.8222 5.63467 12.1333C4.72267 12.4444 3.84444 12.4222 3 12.0667C1.97778 11.6222 1.27822 10.8889 0.901333 9.86667C0.522666 8.84444 0.6 7.88889 1.13333 7C2.42222 5 4.15556 3.33333 6.33333 2C8.51111 0.666667 11.0667 0 14 0C18.6667 0 22.256 1.30044 24.768 3.90133C27.2782 6.50044 28.5333 9.62222 28.5333 13.2667C28.5333 15.4889 28.056 17.3893 27.1013 18.968C26.1449 20.5449 24.6444 22.3333 22.6 24.3333C21.0889 25.7556 20.0222 26.9111 19.4 27.8C18.7778 28.6889 18.3556 29.7111 18.1333 30.8667C17.9556 31.9778 17.4889 32.8889 16.7333 33.6C15.9778 34.3111 15.0889 34.6667 14.0667 34.6667ZM14 50.6667C12.5333 50.6667 11.2782 50.1449 10.2347 49.1013C9.18933 48.056 8.66667 46.8 8.66667 45.3333C8.66667 43.8667 9.18933 42.6107 10.2347 41.5653C11.2782 40.5218 12.5333 40 14 40C15.4667 40 16.7227 40.5218 17.768 41.5653C18.8116 42.6107 19.3333 43.8667 19.3333 45.3333C19.3333 46.8 18.8116 48.056 17.768 49.1013C16.7227 50.1449 15.4667 50.6667 14 50.6667Z" fill="white"/>
</svg>
