<svg width="96" height="96" viewBox="0 0 96 96" fill="none" xmlns="http://www.w3.org/2000/svg">
<rect width="96" height="96" rx="4" fill="#5653FF"/>
<path d="M47.4012 57.6667C46.3345 57.6667 45.4349 57.2889 44.7025 56.5333C43.9683 55.7778 43.6456 54.8889 43.7345 53.8667C43.8678 52 44.3123 50.3778 45.0678 49C45.8234 47.6222 47.0234 46.2 48.6678 44.7333C50.4901 43.1333 51.8785 41.744 52.8332 40.5653C53.7896 39.3884 54.2678 38.0444 54.2678 36.5333C54.2678 34.7111 53.6572 33.2 52.4358 32C51.2127 30.8 49.5123 30.2 47.3345 30.2C45.9123 30.2 44.7016 30.4996 43.7025 31.0987C42.7016 31.6996 41.8901 32.4444 41.2678 33.3333C40.6456 34.2222 39.8794 34.8222 38.9692 35.1333C38.0572 35.4444 37.1789 35.4222 36.3345 35.0667C35.3123 34.6222 34.6127 33.8889 34.2358 32.8667C33.8572 31.8444 33.9345 30.8889 34.4678 30C35.7567 28 37.4901 26.3333 39.6678 25C41.8456 23.6667 44.4012 23 47.3345 23C52.0012 23 55.5905 24.3004 58.1025 26.9013C60.6127 29.5004 61.8678 32.6222 61.8678 36.2667C61.8678 38.4889 61.3905 40.3893 60.4358 41.968C59.4794 43.5449 57.9789 45.3333 55.9345 47.3333C54.4234 48.7556 53.3567 49.9111 52.7345 50.8C52.1123 51.6889 51.6901 52.7111 51.4678 53.8667C51.2901 54.9778 50.8234 55.8889 50.0678 56.6C49.3123 57.3111 48.4234 57.6667 47.4012 57.6667ZM47.3345 73.6667C45.8678 73.6667 44.6127 73.1449 43.5692 72.1013C42.5238 71.056 42.0012 69.8 42.0012 68.3333C42.0012 66.8667 42.5238 65.6107 43.5692 64.5653C44.6127 63.5218 45.8678 63 47.3345 63C48.8012 63 50.0572 63.5218 51.1025 64.5653C52.1461 65.6107 52.6678 66.8667 52.6678 68.3333C52.6678 69.8 52.1461 71.056 51.1025 72.1013C50.0572 73.1449 48.8012 73.6667 47.3345 73.6667Z" fill="white"/>
</svg>
